<svg width="152" height="152" viewBox="0 0 152 152" fill="none" xmlns="http://www.w3.org/2000/svg">
<rect x="1" y="1" width="150" height="150" fill="white" stroke="black" stroke-width="2"/>
<path d="M113.213 70.623C113.213 78.6634 111.667 85.3854 108.574 90.7891C105.514 96.1602 101.071 100.213 95.2441 102.947C89.4173 105.649 82.4023 107 74.1992 107H53.9844V35.6133H76.3965C83.8835 35.6133 90.3776 36.9479 95.8789 39.6172C101.38 42.2539 105.645 46.1764 108.672 51.3848C111.699 56.5605 113.213 62.9733 113.213 70.623ZM97.4902 71.0137C97.4902 65.7402 96.709 61.4108 95.1465 58.0254C93.6165 54.6074 91.3379 52.0846 88.3105 50.457C85.3158 48.8294 81.6048 48.0156 77.1777 48.0156H69.1211V94.5H75.6152C83.0046 94.5 88.4896 92.5306 92.0703 88.5918C95.6836 84.653 97.4902 78.7936 97.4902 71.0137Z" fill="black"/>
</svg>
