<svg width="106" height="41" viewBox="0 0 106 41" fill="none" xmlns="http://www.w3.org/2000/svg">
<path d="M34.7969 20.1797C34.7969 22.0651 34.2734 23.5078 33.2266 24.5078C32.1797 25.5026 30.6719 26 28.7031 26H25.5078V14.5781H29.0391C30.8568 14.5781 32.2708 15.0677 33.2812 16.0469C34.2917 17.026 34.7969 18.4036 34.7969 20.1797ZM32.8281 20.2422C32.8281 17.5078 31.5495 16.1406 28.9922 16.1406H27.375V24.4297H28.7031C31.4531 24.4297 32.8281 23.0339 32.8281 20.2422ZM48.9984 20.2734C48.9984 22.1328 48.5323 23.5781 47.6 24.6094C46.6729 25.6406 45.3578 26.1562 43.6547 26.1562C41.9307 26.1562 40.6052 25.6458 39.6781 24.625C38.7563 23.599 38.2953 22.1432 38.2953 20.2578C38.2953 18.3724 38.7589 16.9245 39.6859 15.9141C40.6182 14.9036 41.9464 14.3984 43.6703 14.3984C45.3682 14.3984 46.6807 14.9115 47.6078 15.9375C48.5349 16.9635 48.9984 18.4089 48.9984 20.2734ZM40.2797 20.2734C40.2797 21.6797 40.5635 22.7474 41.1313 23.4766C41.699 24.2005 42.5401 24.5625 43.6547 24.5625C44.7641 24.5625 45.6 24.2031 46.1625 23.4844C46.7302 22.7656 47.0141 21.6953 47.0141 20.2734C47.0141 18.8724 46.7328 17.8099 46.1703 17.0859C45.613 16.362 44.7797 16 43.6703 16C42.5505 16 41.7042 16.362 41.1313 17.0859C40.5635 17.8099 40.2797 18.8724 40.2797 20.2734ZM53.0516 26V14.5781H54.9188V24.3984H59.7547V26H53.0516ZM63.3234 26V14.5781H65.1906V24.3984H70.0266V26H63.3234ZM76.8219 19.7891L79.525 14.5781H81.5563L77.7516 21.5703V26H75.8766V21.6328L72.0875 14.5781H74.1188L76.8219 19.7891Z" fill="black"/>
<rect x="1" y="1" width="104" height="39" stroke="black" stroke-width="2"/>
</svg>
