<svg width="14" height="14" viewBox="0 0 14 14" fill="none" xmlns="http://www.w3.org/2000/svg">
<path fill-rule="evenodd" clip-rule="evenodd" d="M5.39583 10.7917C2.4158 10.7917 0 8.37587 0 5.39583C0 2.4158 2.4158 0 5.39583 0C8.37587 0 10.7917 2.4158 10.7917 5.39583C10.7917 6.67571 10.3461 7.85151 9.60152 8.77655L13.8291 13.0042C14.057 13.232 14.057 13.6013 13.8291 13.8291C13.6013 14.0569 13.232 14.0569 13.0042 13.8291L8.77656 9.60151C7.85152 10.3461 6.67572 10.7917 5.39583 10.7917ZM5.39583 9.62501C7.73154 9.62501 9.625 7.73155 9.625 5.39584C9.625 3.06014 7.73154 1.16668 5.39583 1.16668C3.06013 1.16668 1.16667 3.06014 1.16667 5.39584C1.16667 7.73155 3.06013 9.62501 5.39583 9.62501Z" fill="#C4C4C4"/>
</svg>
